<svg width="33" height="33" viewBox="0 0 33 33" fill="none" xmlns="http://www.w3.org/2000/svg">
<path d="M31.5043 10.1924C31.3143 9.89154 31.1084 9.63821 30.9501 9.43238C30.8868 8.95738 30.7918 8.40321 30.6809 7.84904C30.4909 6.97821 30.2376 5.98071 29.9051 5.03071C29.6043 4.09654 29.2084 3.13071 28.7493 2.37071C28.5276 1.99071 28.2426 1.59488 27.8943 1.26238C27.5459 0.94571 26.9759 0.581543 26.2318 0.581543H13.5651C12.9001 0.581543 12.4093 0.929876 12.1718 1.13571C11.9026 1.37321 11.6809 1.64238 11.5068 1.89571C11.1584 2.40238 10.8418 3.01988 10.5884 3.60571C10.3193 4.20738 10.0818 4.82488 9.92344 5.36321C9.84427 5.63238 9.7651 5.90154 9.7176 6.13904C9.6701 6.34488 9.60677 6.62988 9.60677 6.91488H12.7734C12.7734 6.94654 12.7734 6.96238 12.7734 6.96238C12.7734 6.96238 12.7734 6.93071 12.8051 6.83571C12.8368 6.69321 12.8843 6.51904 12.9476 6.31321C13.0743 5.88571 13.2643 5.36321 13.4859 4.87238C13.6918 4.41321 13.8976 4.01738 14.0718 3.74821H25.8834C25.9151 3.81154 25.9784 3.89071 26.0418 4.00154C26.3268 4.47654 26.6276 5.18904 26.9126 6.02821C27.1818 6.85154 27.4193 7.73821 27.5776 8.49821H23.8568L25.4401 11.6649H28.6701C28.7334 11.744 28.8126 11.839 28.8759 11.9499C28.9709 12.1082 29.0659 12.2507 29.1451 12.3932L27.1026 13.4224C26.3268 13.8024 26.0101 14.7524 26.4059 15.544C26.7859 16.3199 27.7359 16.6365 28.5276 16.2407L29.3984 15.8132V19.5815H28.9234C27.1818 19.5815 26.2318 20.0407 26.2318 21.8457H26.1209C25.9309 20.959 25.5034 20.199 25.1709 19.6924C24.9651 19.3915 24.7751 19.1382 24.6009 18.9324C24.5534 18.4574 24.4584 17.9032 24.3476 17.349C24.1576 16.4782 23.9043 15.4807 23.5718 14.5307C23.2709 13.5965 22.8751 12.6307 22.4159 11.8707C22.1943 11.4907 21.9093 11.0949 21.5609 10.7624C21.2126 10.4457 20.6426 10.0815 19.8984 10.0815H7.23177C6.4876 10.0815 5.93344 10.4457 5.5851 10.7624C5.22094 11.0949 4.93594 11.4907 4.71427 11.8707C4.2551 12.6307 3.85927 13.5965 3.55844 14.5307C3.24177 15.4807 2.9726 16.4782 2.7826 17.349C2.67177 17.9032 2.57677 18.4574 2.52927 18.9324C2.3551 19.1382 2.1651 19.3915 1.95927 19.6924C1.51594 20.3574 0.914271 21.4499 0.898438 22.7007C0.898438 22.7324 0.898438 22.7482 0.898438 22.7799V30.6649C0.898438 31.5357 1.61094 32.2482 2.48177 32.2482H8.8151C9.68594 32.2482 10.3984 31.5357 10.3984 30.6649H16.7318C16.7318 31.5357 17.4443 32.2482 18.3151 32.2482H24.6484C25.5193 32.2482 26.2318 31.5357 26.2318 30.6649V22.7482H30.9818C31.8526 22.7482 32.5651 22.0357 32.5651 21.1649V13.2957C32.5651 13.264 32.5651 13.2165 32.5651 13.1849C32.5493 11.9499 31.9476 10.8574 31.5043 10.1924ZM6.55094 15.5282C6.83594 14.689 7.13677 13.9765 7.42177 13.5015C7.4851 13.3907 7.54844 13.3115 7.59594 13.2482H19.5501C19.5818 13.3115 19.6451 13.3907 19.7084 13.5015C19.9934 13.9765 20.2943 14.689 20.5793 15.5282C20.8484 16.3515 21.0859 17.2382 21.2443 17.9982H5.88594C6.04427 17.2382 6.28177 16.3515 6.55094 15.5282ZM23.0651 29.0815H19.8984V27.4982H7.23177V29.0815H4.0651V25.3132L4.93594 25.7407C5.7276 26.1365 6.6776 25.8199 7.07344 25.044C7.45344 24.2524 7.13677 23.3024 6.36094 22.9224L4.33427 21.8932C4.3976 21.7507 4.4926 21.6082 4.5876 21.4499C4.66677 21.339 4.7301 21.244 4.79344 21.1649H22.3368C22.4001 21.244 22.4793 21.339 22.5426 21.4499C22.6376 21.6082 22.7326 21.7507 22.8118 21.8932L20.7693 22.9224C19.9934 23.3024 19.6768 24.2524 20.0726 25.044C20.4526 25.8199 21.4026 26.1365 22.1943 25.7407L23.0651 25.3132V29.0815Z" fill="white"/>
</svg>
