<svg width="41" height="41" viewBox="0 0 41 41" fill="none" xmlns="http://www.w3.org/2000/svg">
<path d="M37.3804 6.9152C37.297 6.59854 37.147 6.1652 36.8304 5.74854C36.1304 4.83187 34.9637 4.24854 33.297 4.24854C31.647 4.24854 30.4804 4.83187 29.7804 5.74854C29.4637 6.1652 29.3137 6.59854 29.2304 6.9152C29.1804 7.08187 29.1637 7.2152 29.147 7.33187C29.147 7.38187 29.147 7.43187 29.147 7.48187C29.1304 7.49854 29.1304 7.5152 29.1304 7.53187V10.9152C29.1304 11.8319 29.8804 12.5819 30.797 12.5819H31.6304V17.5819C31.6304 18.4985 32.3804 19.2485 33.297 19.2485H37.4637V15.9152H34.9637V12.5819H35.797C36.7304 12.5819 37.4637 11.8319 37.4637 10.9152V7.53187C37.4637 7.5152 37.4637 7.49854 37.4637 7.48187C37.4637 7.43187 37.4637 7.38187 37.4637 7.33187C37.447 7.2152 37.4137 7.08187 37.3804 6.9152ZM34.1304 9.24854H32.4637V7.73187C32.547 7.68187 32.7804 7.58187 33.297 7.58187C33.8304 7.58187 34.047 7.68187 34.1304 7.73187V9.24854Z" fill="white"/>
<path d="M34.947 22.315L30.2804 21.1484L26.0804 12.765C25.5137 11.6317 24.3637 10.915 23.097 10.915H11.897C10.5637 10.915 9.3637 11.715 8.83037 12.9317L4.39704 23.2817C4.23037 23.6984 4.13037 24.1317 4.13037 24.5984V30.915C4.13037 32.365 4.88037 33.4484 6.0137 33.9484C6.6137 36.0317 8.53037 37.5817 10.797 37.5817C12.9637 37.5817 14.797 36.1817 15.4804 34.2484H26.097C26.797 36.1817 28.6304 37.5817 30.7804 37.5817C33.047 37.5817 34.9637 36.0317 35.5637 33.9484C36.7137 33.4484 37.4637 32.365 37.4637 30.915V25.5484C37.4637 23.8484 36.5804 22.715 34.947 22.315ZM20.797 14.2484H23.097L26.4304 20.915H20.797V14.2484ZM11.897 14.2484H17.4637V20.915H9.04704L11.897 14.2484ZM10.797 34.2484C9.88037 34.2484 9.13037 33.4984 9.13037 32.5817C9.13037 31.665 9.88037 30.915 10.797 30.915C11.7137 30.915 12.4637 31.665 12.4637 32.5817C12.4637 33.4984 11.7137 34.2484 10.797 34.2484ZM26.1137 30.915H15.4804C14.797 28.9817 12.9637 27.5817 10.797 27.5817C8.94704 27.5817 7.34704 28.615 6.48037 30.0984L6.29704 29.9984C6.7637 29.1817 7.4637 28.215 7.4637 26.965V24.2484H28.3804C29.147 24.2484 29.3304 24.2817 29.7637 24.3984L34.1304 25.5484V26.965C34.1304 28.215 34.8304 29.1817 35.297 29.9984L35.1137 30.0984C34.247 28.615 32.647 27.5817 30.797 27.5817C28.6304 27.5817 26.797 28.9817 26.1137 30.915ZM30.797 34.2484C29.8804 34.2484 29.1304 33.4984 29.1304 32.5817C29.1304 31.665 29.8804 30.915 30.797 30.915C31.7137 30.915 32.4637 31.665 32.4637 32.5817C32.4637 33.4984 31.7137 34.2484 30.797 34.2484Z" fill="white"/>
</svg>
