<svg width="36" height="37" viewBox="0 0 36 37" fill="none" xmlns="http://www.w3.org/2000/svg">
<path d="M27.9 20.815C30.15 18.715 31.5 15.715 31.5 12.415C31.5 9.11504 30.15 6.11504 28.05 4.01504L25.95 6.11504C27.45 7.76504 28.5 9.86504 28.5 12.415C28.5 14.965 27.45 17.065 25.8 18.715L27.9 20.815ZM23.7 16.615C24.9 15.565 25.5 14.065 25.5 12.415C25.5 10.765 24.9 9.26504 23.7 8.21504L21.6 10.315C22.2 10.915 22.5 11.515 22.5 12.415C22.5 13.315 22.2 14.065 21.6 14.515L23.7 16.615ZM15 28.165C16.2 28.165 17.25 27.115 17.25 25.915C17.25 24.715 16.2 23.665 15 23.665C13.8 23.665 12.75 24.715 12.75 25.915C12.75 27.115 13.8 28.165 15 28.165ZM5.4 6.41504H21V3.41504H7.5C5.85 3.41504 4.5 4.76504 4.5 6.41504V30.415C4.5 32.065 5.85 33.415 7.5 33.415H22.5C24.15 33.415 25.5 32.065 25.5 30.415V22.915H22.5V30.415H7.5V9.26504C7.5 7.61504 6.75 6.86504 5.4 6.56504V6.41504Z" fill="white"/>
</svg>
