<svg width="14" height="15" viewBox="0 0 14 15" fill="none" xmlns="http://www.w3.org/2000/svg">
<path d="M2.23611 2.83317H4.85524L5.69945 4.94369L4.34327 5.84781C4.18099 5.956 4.08351 6.13813 4.08351 6.33317C4.08499 6.38779 4.08351 6.33375 4.08351 6.33375L4.08351 6.33437L4.08352 6.33567L4.08353 6.33861L4.08362 6.34581C4.08371 6.35119 4.08385 6.35772 4.0841 6.36537C4.08459 6.38066 4.08548 6.40043 4.08708 6.42438C4.09027 6.47227 4.09629 6.53701 4.1076 6.61619C4.13021 6.77444 4.17409 6.99124 4.25928 7.2468C4.43033 7.75997 4.76644 8.42439 5.42103 9.07898C6.07563 9.73358 6.74005 10.0697 7.25321 10.2407C7.50878 10.3259 7.72557 10.3698 7.88383 10.3924C7.963 10.4037 8.02774 10.4097 8.07563 10.4129C8.09959 10.4145 8.11936 10.4154 8.13465 10.4159C8.1423 10.4162 8.14883 10.4163 8.1542 10.4164L8.1614 10.4165L8.16434 10.4165L8.16565 10.4165L8.16626 10.4165C8.16626 10.4165 8.23138 10.4129 8.16684 10.4165C8.38779 10.4165 8.58978 10.2917 8.68859 10.094L9.07925 9.31273L11.6668 9.74399V12.2639C10.4354 12.442 7.1095 12.6175 4.49599 10.004C1.88248 7.39052 2.05801 4.06464 2.23611 2.83317ZM5.29314 6.61672L6.3466 5.91441C6.80564 5.60838 6.98757 5.02264 6.78267 4.5104L5.93846 2.39988C5.76129 1.95695 5.3323 1.6665 4.85524 1.6665H2.20563C1.67567 1.6665 1.17681 2.03468 1.08981 2.6097C0.89188 3.91788 0.622469 7.78042 3.67103 10.829C6.7196 13.8775 10.5821 13.6081 11.8903 13.4102C12.4653 13.3232 12.8335 12.8243 12.8335 12.2944V9.74399C12.8335 9.17368 12.4212 8.68696 11.8586 8.5932L9.27105 8.16194C8.76584 8.07774 8.2648 8.33288 8.03575 8.79098L7.83363 9.19522C7.7701 9.17963 7.69918 9.15962 7.62214 9.13394C7.26031 9.01333 6.75806 8.7661 6.24599 8.25403C5.73392 7.74195 5.48669 7.23971 5.36608 6.87787C5.33348 6.7801 5.31002 6.69218 5.29314 6.61672Z" fill="currentColor"/>
</svg>
