<svg width="40" height="34" viewBox="0 0 40 34" fill="none" xmlns="http://www.w3.org/2000/svg">
<path d="M10.4132 0.0769501C10.1343 0.18359 10.0687 0.569138 10.0687 1.98828C10.0687 3.71914 10.1589 3.94883 10.8316 3.95703H11.1351V7.57461C11.1351 10.9789 11.1269 11.184 10.9956 11.143C10.1589 10.8887 9.60931 10.8148 8.46908 10.823C7.41087 10.823 7.12376 10.8559 6.4265 11.0363C3.42416 11.832 1.09447 14.1699 0.339781 17.1312C0.0936869 18.1238 0.0116556 19.1656 0.134703 19.9531C0.512046 22.3895 2.84173 26.7371 6.28705 31.4621C6.74642 32.0855 7.11556 32.6105 7.11556 32.6352C7.11556 32.6516 5.639 32.668 3.82611 32.668H0.536656L0.298765 32.9059C0.00345252 33.2012 -0.0047506 33.5047 0.265953 33.7754L0.462828 33.9805H19.7074H38.9519L39.1488 33.7754C39.3703 33.5621 39.4031 33.357 39.2636 33.0535C39.1488 32.7992 38.8699 32.668 38.4515 32.668H38.1234V23.7676V14.8672H38.4515C38.8699 14.8672 39.1488 14.7359 39.2636 14.4816C39.321 14.3668 39.3538 13.7516 39.3538 12.9312C39.3538 11.6023 39.3538 11.5777 39.1488 11.3809L38.9519 11.1758H33.6937H28.4437V7.5664V3.95703H28.7636C28.9933 3.95703 29.1656 3.89961 29.3214 3.76015L29.5511 3.56328L29.5757 2.22617C29.6085 0.70039 29.5757 0.41328 29.3296 0.18359C29.1492 0.0195274 29.0343 0.0195274 19.8386 0.0277328C14.7117 0.0277328 10.4706 0.0523415 10.4132 0.0769501ZM28.2796 1.98828V2.64453H19.8304H11.3812V1.98828V1.33203H19.8304H28.2796V1.98828ZM27.1312 18.3125V32.668H25.4085H23.6859V29.6738V26.6797H24.014C24.6374 26.6797 24.9984 26.327 24.8671 25.8266C24.7523 25.3508 24.8917 25.3672 19.7648 25.3672H15.0644L14.8675 25.5723C14.5968 25.8348 14.5968 26.2121 14.8675 26.4746C15.0234 26.6387 15.1464 26.6797 15.4827 26.6797H15.8929V29.6738V32.668H14.1702H12.4476V30.8551V29.0504L13.3827 27.5574C14.3261 26.0398 15.089 24.7027 15.573 23.702L15.8437 23.1523H17.2136C18.6245 23.1523 19.0347 23.0867 19.1742 22.8242C19.2234 22.734 19.2562 21.7496 19.2562 20.4617C19.2562 17.7465 19.371 17.9598 17.8781 17.9023L16.8445 17.8613L16.746 17.4102C16.6886 17.1641 16.6394 16.9098 16.6312 16.8523C16.6312 16.7785 16.9019 16.7539 17.7304 16.7539C18.7148 16.7539 18.846 16.7375 19.0429 16.5816L19.2562 16.4176V14.1863C19.2562 12.0207 19.248 11.9633 19.0757 11.7746L18.9035 11.5859H16.3031C13.4976 11.5859 13.4238 11.5941 13.3171 12.0371L13.2679 12.2422L12.8577 11.9879L12.4476 11.7336V7.84531V3.95703H19.7894H27.1312V18.3125ZM10.2738 12.3242C13.2515 13.0871 15.3679 15.6383 15.6058 18.7391C15.6714 19.5594 15.5238 20.3633 15.0972 21.5117C14.2359 23.8332 11.6355 28.1316 8.98587 31.6262L8.49369 32.266L7.90306 31.4621C5.58158 28.3039 3.8097 25.4984 2.68587 23.1934C1.36517 20.5027 1.14369 19.3051 1.62767 17.4266C2.21009 15.1297 4.03119 13.1855 6.27884 12.4473C7.50931 12.0453 9.02689 11.9961 10.2738 12.3242ZM38.0413 13.0215V13.5547H33.2425H28.4437V13.0215V12.4883H33.2425H38.0413V13.0215ZM17.9437 14.1699V15.4414H17.0085H16.0652L15.8027 14.982C15.6632 14.7277 15.3269 14.252 15.0644 13.9156C14.7609 13.5383 14.5804 13.2348 14.5804 13.1035V12.8984H16.262H17.9437V14.1699ZM36.8109 23.7676V32.668H32.6273H28.4437V23.7676V14.8672H32.6273H36.8109V23.7676ZM17.9437 20.5273V21.8398H17.2054C16.3523 21.8398 16.3687 21.8645 16.623 21.0523C16.7132 20.7734 16.8281 20.2484 16.8855 19.8875L16.9839 19.2148H17.4679H17.9437V20.5273ZM22.3734 29.6738V32.668H19.7894H17.2054V29.6738V26.6797H19.7894H22.3734V29.6738ZM11.1351 31.8066V32.668H10.5117C10.1671 32.668 9.90462 32.6352 9.92103 32.6023C9.95384 32.5203 11.0859 30.9535 11.1187 30.9453C11.1269 30.9453 11.1351 31.3309 11.1351 31.8066Z" fill="black"/>
<path d="M13.5059 5.67945L13.2598 5.91735L13.2844 8.09117C13.309 10.2322 13.309 10.2732 13.4977 10.4537C13.6781 10.6423 13.7109 10.6423 16.0406 10.667C18.5918 10.6916 18.8543 10.6752 19.1004 10.4291C19.248 10.2814 19.2562 10.142 19.2562 8.05836V5.83531L19.0512 5.63844L18.8543 5.43336H16.3031H13.7437L13.5059 5.67945ZM17.9437 8.05836V9.37086L16.2867 9.35445L14.6215 9.32985L14.5969 8.03375L14.5723 6.74586H16.2621H17.9437V8.05836Z" fill="black"/>
<path d="M20.6507 5.7043C20.2569 5.90117 20.2405 6.05703 20.2569 8.3293L20.2816 10.4539L20.5112 10.6508L20.7409 10.8477H23.2839H25.8269L26.0237 10.6426L26.2288 10.4457V8.23906C26.2288 6.18008 26.2206 6.01602 26.073 5.83555L25.9171 5.63867L23.3823 5.61406C21.4628 5.59766 20.8066 5.62227 20.6507 5.7043ZM24.9163 8.22266V9.53516H23.2347H21.553V8.28008C21.553 7.58281 21.5777 6.99219 21.6105 6.96758C21.6351 6.93477 22.398 6.91016 23.2921 6.91016H24.9163V8.22266Z" fill="black"/>
<path d="M20.4786 11.7418C20.2817 11.8977 20.2817 11.9059 20.2571 13.973C20.2407 15.1215 20.2571 16.1387 20.2817 16.2371C20.3063 16.3355 20.4047 16.4996 20.5032 16.5898C20.6755 16.7457 20.7821 16.7539 23.243 16.7539C25.704 16.7539 25.8024 16.7457 26.0157 16.5816L26.229 16.4176V14.1617C26.229 12.0207 26.2208 11.9059 26.0649 11.75C25.909 11.5941 25.7942 11.5859 23.284 11.5859C20.8313 11.5859 20.659 11.5941 20.4786 11.7418ZM24.9165 14.1699V15.4414H23.2348H21.5532V14.1699V12.8984H23.2348H24.9165V14.1699Z" fill="black"/>
<path d="M20.5032 18.0664C20.4047 18.1566 20.3063 18.3207 20.2817 18.4191C20.2571 18.5176 20.2407 19.5348 20.2571 20.6832C20.2817 22.7504 20.2817 22.7586 20.4786 22.9145C20.659 23.0621 20.8313 23.0703 23.284 23.0703C25.7942 23.0703 25.909 23.0621 26.0649 22.9062C26.2208 22.7504 26.229 22.6355 26.229 20.4945V18.2387L26.0157 18.0746C25.8024 17.9105 25.704 17.9023 23.243 17.9023C20.7821 17.9023 20.6755 17.9105 20.5032 18.0664ZM24.9165 20.4863V21.7578H23.2348H21.5532V20.4863V19.2148H23.2348H24.9165V20.4863Z" fill="black"/>
<path d="M7.23851 14.6949C5.59788 15.1625 4.3346 16.4586 3.91624 18.1074C3.30101 20.5273 4.67913 23.0047 7.07445 23.7758C8.77249 24.3254 10.569 23.8824 11.8323 22.6191C12.4967 21.9547 12.8741 21.2984 13.1037 20.3961C13.3909 19.2723 13.2596 18.173 12.7182 17.082C12.144 15.95 10.9545 14.9902 9.69124 14.6621C9.0596 14.498 7.87015 14.5144 7.23851 14.6949ZM9.50257 15.9828C11.2252 16.4832 12.2998 18.3699 11.8405 20.0844C11.6764 20.716 11.3237 21.2984 10.8315 21.766C9.47796 23.0457 7.33695 22.9883 6.05726 21.6348C4.3182 19.7973 4.98265 16.9344 7.36155 16.032C7.91937 15.8187 8.87093 15.7941 9.50257 15.9828Z" fill="black"/>
<path d="M30.0517 16.8441L29.8384 17.0082V19.2477C29.8384 21.4789 29.8384 21.4871 30.0271 21.6594C30.2157 21.8398 30.2649 21.8398 32.8079 21.8398C35.236 21.8398 35.4083 21.8316 35.5888 21.684C35.7856 21.5281 35.7856 21.5199 35.8103 19.4527C35.8267 18.3043 35.8103 17.2871 35.7856 17.1805C35.761 17.082 35.6708 16.9262 35.5806 16.8359C35.4247 16.6801 35.2935 16.6719 32.8407 16.6719C30.3634 16.6719 30.2649 16.6801 30.0517 16.8441ZM34.5142 19.2559V20.5273H32.8325H31.1509V19.2559V17.9844H32.8325H34.5142V19.2559Z" fill="black"/>
<path d="M30.2075 23.5707C29.8466 23.7758 29.8384 23.825 29.8384 26.1219V28.3285L30.0435 28.5254L30.2403 28.7305H32.7915H35.3509L35.5888 28.4926L35.8267 28.2547V26.1137V23.9809L35.6298 23.7512L35.4329 23.5215L32.8981 23.5051C31.1591 23.4887 30.3224 23.5133 30.2075 23.5707ZM34.5142 26.1055V27.418H32.8325H31.1509V26.1055V24.793H32.8325H34.5142V26.1055Z" fill="black"/>
</svg>
