<svg width="20" height="20" viewBox="0 0 20 20" fill="none" xmlns="http://www.w3.org/2000/svg">
<path fill-rule="evenodd" clip-rule="evenodd" d="M9.99984 16.6665C13.6817 16.6665 16.6665 13.6817 16.6665 9.99984C16.6665 6.31794 13.6817 3.33317 9.99984 3.33317C6.31794 3.33317 3.33317 6.31794 3.33317 9.99984C3.33317 13.6817 6.31794 16.6665 9.99984 16.6665ZM9.99984 18.3332C14.6022 18.3332 18.3332 14.6022 18.3332 9.99984C18.3332 5.39746 14.6022 1.6665 9.99984 1.6665C5.39746 1.6665 1.6665 5.39746 1.6665 9.99984C1.6665 14.6022 5.39746 18.3332 9.99984 18.3332Z" fill="#464646"/>
<path fill-rule="evenodd" clip-rule="evenodd" d="M11.4557 15.147C12.0713 13.9159 12.5002 12.0984 12.5002 9.99984C12.5002 7.90129 12.0713 6.08381 11.4557 4.85264C10.7903 3.52177 10.1794 3.33317 10.0002 3.33317C9.82095 3.33317 9.21003 3.52177 8.5446 4.85264C7.92901 6.08381 7.50016 7.90129 7.50016 9.99984C7.50016 12.0984 7.92901 13.9159 8.5446 15.147C9.21003 16.4779 9.82095 16.6665 10.0002 16.6665C10.1794 16.6665 10.7903 16.4779 11.4557 15.147ZM10.0002 18.3332C12.3013 18.3332 14.1668 14.6022 14.1668 9.99984C14.1668 5.39746 12.3013 1.6665 10.0002 1.6665C7.69898 1.6665 5.8335 5.39746 5.8335 9.99984C5.8335 14.6022 7.69898 18.3332 10.0002 18.3332Z" fill="#464646"/>
<path fill-rule="evenodd" clip-rule="evenodd" d="M18.292 10.8332C18.3192 10.5591 18.3332 10.2811 18.3332 9.99984C18.3332 9.71859 18.3192 9.44059 18.292 9.1665H1.70765C1.68044 9.44059 1.6665 9.71859 1.6665 9.99984C1.6665 10.2811 1.68044 10.5591 1.70765 10.8332H18.292Z" fill="#464646"/>
</svg>
