<?xml version="1.0" encoding="utf-8"?>
<!-- Generator: Adobe Illustrator 25.2.0, SVG Export Plug-In . SVG Version: 6.00 Build 0)  -->
<svg version="1.1" xmlns="http://www.w3.org/2000/svg" xmlns:xlink="http://www.w3.org/1999/xlink" x="0px" y="0px"
	 viewBox="0 0 392 100" style="enable-background:new 0 0 392 100;" xml:space="preserve">
<style type="text/css">
	.st0{fill:#CA9E67;}
	.st1{fill:#FFFFFF;}
</style>
<g id="Layer_1">
	<g>
		<g>
			<g>
				<path d="M112.7,27.6V8.3h12.8v2.9h-9.3v16.4H112.7z"/>
				<path d="M136.4,27.9c-1.4,0-2.7-0.2-3.8-0.7c-1.1-0.5-2.1-1.1-2.9-2c-0.8-0.9-1.4-1.9-1.9-3.2c-0.4-1.2-0.7-2.6-0.7-4.1
					c0-1.5,0.2-2.9,0.7-4.1c0.4-1.2,1.1-2.3,1.9-3.1c0.8-0.9,1.8-1.5,2.9-2c1.1-0.5,2.4-0.7,3.8-0.7c1.4,0,2.7,0.2,3.8,0.7
					c1.1,0.5,2.1,1.1,2.9,2c0.8,0.9,1.4,1.9,1.9,3.1c0.4,1.2,0.7,2.6,0.7,4.1c0,1.5-0.2,2.9-0.7,4.1c-0.4,1.2-1.1,2.3-1.9,3.2
					c-0.8,0.9-1.8,1.5-2.9,2C139,27.7,137.8,27.9,136.4,27.9z M136.4,24.9c1.2,0,2.2-0.3,3-0.8c0.8-0.5,1.5-1.3,1.9-2.4
					c0.4-1,0.7-2.3,0.7-3.7c0-1.5-0.2-2.7-0.7-3.7c-0.4-1-1.1-1.8-1.9-2.4c-0.8-0.5-1.9-0.8-3-0.8c-1.2,0-2.2,0.3-3,0.8
					c-0.8,0.5-1.5,1.3-1.9,2.4c-0.4,1-0.7,2.3-0.7,3.7c0,1.4,0.2,2.7,0.7,3.7c0.4,1,1.1,1.8,1.9,2.4
					C134.2,24.6,135.2,24.9,136.4,24.9z"/>
				<path d="M158.2,27.9c-2,0-3.7-0.4-5.2-1.2c-1.4-0.8-2.5-2-3.3-3.5c-0.8-1.5-1.2-3.2-1.2-5.3s0.4-3.8,1.2-5.3
					c0.8-1.5,1.9-2.6,3.3-3.4c1.4-0.8,3.2-1.2,5.2-1.2c1.3,0,2.5,0.2,3.7,0.6c1.2,0.4,2.1,1,2.9,1.7l-1.2,2.8
					c-0.8-0.7-1.7-1.2-2.5-1.5c-0.9-0.3-1.8-0.5-2.8-0.5c-2,0-3.4,0.6-4.5,1.8c-1,1.2-1.5,2.9-1.5,5c0,2.2,0.5,3.9,1.5,5
					c1,1.2,2.5,1.8,4.5,1.8c1,0,1.9-0.2,2.8-0.5c0.9-0.3,1.7-0.8,2.5-1.5l1.2,2.8c-0.7,0.7-1.7,1.3-2.9,1.7
					C160.7,27.7,159.5,27.9,158.2,27.9z"/>
				<path d="M170.7,27.6l3.3-6.4v1.1l-8.6-14h3.8l6.6,10.8H175l5.5-10.8h3.6l-9.8,19.3H170.7z"/>
				<path d="M182.5,32.1v-7.3h1.9c0.6-0.7,1.1-1.6,1.5-2.7c0.4-1.1,0.7-2.3,0.8-3.8c0.2-1.5,0.3-3.1,0.3-5v-5h13.7v16.5h2.7v7.3
					h-3.1v-4.5h-14.7v4.5H182.5z M188,24.8h9.2V11.1h-6.9v2.6c0,1.8-0.1,3.3-0.2,4.7c-0.2,1.4-0.4,2.6-0.8,3.7
					C188.9,23.1,188.5,24,188,24.8z"/>
				<path d="M204.1,27.6l8.7-19.3h2.9l8.7,19.3h-3.6l-2.3-5.4l1.5,1h-11.6l1.5-1l-2.3,5.4H204.1z M214.2,12.1l-3.8,9.1l-0.7-0.9h9.2
					l-0.7,0.9L214.2,12.1L214.2,12.1z"/>
				<path d="M226.5,27.6V8.3h8.4c1.4,0,2.6,0.2,3.6,0.7c1,0.5,1.7,1.2,2.2,2.1c0.5,0.9,0.8,2,0.8,3.3c0,1.3-0.3,2.3-0.8,3.2
					c-0.5,0.9-1.3,1.6-2.2,2.1c-1,0.5-2.2,0.7-3.6,0.7H230v7.2H226.5z M230,17.6h4.3c1.2,0,2.2-0.3,2.8-0.8c0.6-0.6,1-1.4,1-2.5
					c0-1.1-0.3-1.9-1-2.4c-0.6-0.5-1.6-0.8-2.8-0.8H230V17.6z"/>
				<path d="M253.1,27.9c-2,0-3.7-0.4-5.2-1.2c-1.4-0.8-2.5-2-3.3-3.5c-0.8-1.5-1.2-3.2-1.2-5.3s0.4-3.8,1.2-5.3
					c0.8-1.5,1.9-2.6,3.3-3.4c1.4-0.8,3.2-1.2,5.2-1.2c1.3,0,2.5,0.2,3.7,0.6c1.2,0.4,2.1,1,2.9,1.7l-1.2,2.8
					c-0.8-0.7-1.7-1.2-2.5-1.5c-0.9-0.3-1.8-0.5-2.8-0.5c-2,0-3.4,0.6-4.5,1.8c-1,1.2-1.5,2.9-1.5,5c0,2.2,0.5,3.9,1.5,5
					c1,1.2,2.5,1.8,4.5,1.8c1,0,1.9-0.2,2.8-0.5c0.9-0.3,1.7-0.8,2.5-1.5l1.2,2.8c-0.7,0.7-1.7,1.3-2.9,1.7
					C255.6,27.7,254.4,27.9,253.1,27.9z"/>
				<path d="M267.1,27.6V11.2h-6.6V8.3h16.8v2.9h-6.6v16.4H267.1z"/>
				<path d="M279.5,27.6V8.3h8.4c2,0,3.6,0.4,4.7,1.3c1.1,0.9,1.7,2.1,1.7,3.7c0,1.2-0.3,2.2-1,3c-0.7,0.8-1.6,1.3-2.8,1.6v-0.4
					c0.9,0.1,1.7,0.4,2.3,0.8c0.6,0.4,1.1,1,1.5,1.6c0.3,0.7,0.5,1.4,0.5,2.3c0,1.1-0.3,2.1-0.8,2.9c-0.5,0.8-1.3,1.4-2.3,1.8
					c-1,0.4-2.2,0.6-3.5,0.6H279.5z M282.8,16.5h4.5c1.2,0,2.1-0.2,2.7-0.7c0.6-0.5,0.9-1.2,0.9-2.1c0-0.9-0.3-1.6-0.9-2.1
					c-0.6-0.5-1.5-0.7-2.7-0.7h-4.5V16.5z M282.8,25h4.9c0.5,0,0.9,0,1.3-0.1c0.4-0.1,0.7-0.2,1-0.3c0.3-0.2,0.5-0.4,0.7-0.6
					c0.2-0.2,0.3-0.5,0.4-0.8c0.1-0.3,0.1-0.7,0.1-1c0-0.4,0-0.8-0.1-1.1c-0.1-0.3-0.2-0.6-0.4-0.8c-0.2-0.2-0.4-0.4-0.7-0.6
					c-0.3-0.2-0.6-0.3-1-0.3c-0.4-0.1-0.8-0.1-1.3-0.1h-4.9V25z"/>
				<path d="M298.3,27.6V8.3h12.8v2.8h-9.5v5.3h8.9v2.8h-8.9v5.6h9.5v2.8H298.3z"/>
				<path d="M314.7,27.6V8.3h3.5v8.1h9.9V8.3h3.5v19.3h-3.5v-8.3h-9.9v8.3H314.7z"/>
				<path d="M335.8,27.6V8.3h3.5v8.1h9.9V8.3h3.5v19.3h-3.5v-8.3h-9.9v8.3H335.8z"/>
				<path d="M354.9,27.6l8.7-19.3h2.9l8.7,19.3h-3.6l-2.3-5.4l1.5,1h-11.6l1.5-1l-2.3,5.4H354.9z M365.1,12.1l-3.8,9.1l-0.7-0.9h9.2
					l-0.7,0.9L365.1,12.1L365.1,12.1z"/>
				<path d="M376.1,27.6l3.2-5.9c0.4-0.8,0.9-1.4,1.5-1.7c0.6-0.4,1.2-0.5,2-0.5h0.9l-0.1,0.4c-1.4,0-2.6-0.2-3.6-0.7
					c-1-0.5-1.8-1.1-2.3-2c-0.5-0.9-0.8-1.9-0.8-3.1c0-1.8,0.6-3.2,1.7-4.3c1.2-1,2.8-1.5,4.9-1.5h8.4v19.3h-3.5v-7.7h-2.4
					c-0.4,0-0.8,0-1.2,0.1c-0.3,0.1-0.7,0.3-0.9,0.5c-0.3,0.2-0.5,0.5-0.7,0.9l-3.4,6.2H376.1z M384.2,17.3h4.3v-6.2h-4.3
					c-1.3,0-2.2,0.3-2.9,0.8c-0.6,0.5-1,1.3-1,2.3c0,1,0.3,1.8,1,2.3C382,17,383,17.3,384.2,17.3z"/>
			</g>
			<g>
				<path d="M114.6,60.1l-1.7-2.6c0.7-0.4,1.4-0.9,1.9-1.5c0.6-0.6,1-1.3,1.4-2.1c0.4-0.8,0.7-1.9,0.8-3.2c0.2-1.3,0.3-2.8,0.3-4.6
					v-5.9h13.6v19.3h-3.5V43.3h-6.9v3.8c0,1.9-0.1,3.5-0.4,4.9c-0.3,1.4-0.7,2.6-1.2,3.7c-0.5,1-1.1,1.9-1.9,2.6
					C116.4,59,115.5,59.6,114.6,60.1z"/>
				<path d="M135.2,59.6V40.3h3.3v14.4h-0.6l11-14.4h2.6v19.3h-3.3V45.2h0.6l-11,14.4H135.2z"/>
				<path d="M161.9,59.9c-1.1,0-2.1-0.1-3-0.3c-0.9-0.2-1.7-0.5-2.5-0.8c-0.7-0.4-1.4-0.8-2-1.2l1.1-2.7c0.8,0.7,1.7,1.2,2.7,1.5
					c1,0.3,2.1,0.5,3.4,0.5c1.5,0,2.6-0.2,3.4-0.7c0.7-0.5,1.1-1.2,1.1-2.2c0-0.9-0.3-1.6-0.9-2c-0.6-0.4-1.5-0.7-2.7-0.7h-4.7v-2.8
					h4.2c1.2,0,2.1-0.2,2.7-0.7c0.6-0.4,0.9-1.1,0.9-2c0-0.9-0.3-1.5-0.9-2c-0.6-0.5-1.6-0.8-3-0.8c-1.1,0-2.1,0.2-3.1,0.5
					c-1,0.3-1.9,0.8-2.7,1.5l-1.1-2.6c0.6-0.5,1.3-0.9,2-1.2c0.8-0.3,1.6-0.6,2.5-0.8c0.9-0.2,1.8-0.3,2.8-0.3
					c1.6,0,2.9,0.2,3.9,0.7c1,0.4,1.8,1.1,2.3,1.9c0.5,0.8,0.8,1.7,0.8,2.8c0,1.2-0.3,2.2-1,3c-0.7,0.8-1.6,1.3-2.8,1.6v-0.4
					c1.3,0.2,2.4,0.7,3.1,1.5c0.7,0.8,1.1,1.9,1.1,3.2c0,1.1-0.3,2.1-0.8,3c-0.5,0.9-1.4,1.5-2.5,2C165,59.7,163.6,59.9,161.9,59.9z
					"/>
				<path d="M173,59.6V40.3h3.3v14.4h-0.6l11-14.4h2.6v19.3H186V45.2h0.6l-11,14.4H173z"/>
				<path d="M193.5,59.6V40.3h3.5v8.1h9.9v-8.1h3.5v19.3H207v-8.3H197v8.3H193.5z"/>
				<path d="M214.7,59.6V40.3h12.8v2.9h-9.3v16.4H214.7z"/>
				<path d="M238.4,59.9c-1.4,0-2.7-0.2-3.8-0.7c-1.1-0.5-2.1-1.1-2.9-2c-0.8-0.9-1.4-1.9-1.9-3.2c-0.4-1.2-0.7-2.6-0.7-4.1
					c0-1.5,0.2-2.9,0.7-4.1c0.4-1.2,1.1-2.3,1.9-3.1c0.8-0.9,1.8-1.5,2.9-2c1.1-0.5,2.4-0.7,3.8-0.7c1.4,0,2.7,0.2,3.8,0.7
					c1.1,0.5,2.1,1.1,2.9,2c0.8,0.9,1.4,1.9,1.9,3.1c0.4,1.2,0.7,2.6,0.7,4.1c0,1.5-0.2,2.9-0.7,4.1c-0.4,1.2-1.1,2.3-1.9,3.2
					c-0.8,0.9-1.8,1.5-2.9,2C241.1,59.7,239.8,59.9,238.4,59.9z M238.4,56.9c1.2,0,2.2-0.3,3-0.8c0.8-0.5,1.5-1.3,1.9-2.4
					c0.4-1,0.7-2.3,0.7-3.7c0-1.5-0.2-2.7-0.7-3.7c-0.4-1-1.1-1.8-1.9-2.4c-0.8-0.5-1.9-0.8-3-0.8c-1.2,0-2.2,0.3-3,0.8
					c-0.8,0.5-1.5,1.3-1.9,2.4c-0.4,1-0.7,2.3-0.7,3.7c0,1.4,0.2,2.7,0.7,3.7c0.4,1,1.1,1.8,1.9,2.4
					C236.2,56.6,237.2,56.9,238.4,56.9z"/>
				<path d="M251.2,59.6V40.3h8.4c2,0,3.6,0.4,4.7,1.3c1.1,0.9,1.7,2.1,1.7,3.7c0,1.2-0.3,2.2-1,3c-0.7,0.8-1.6,1.3-2.8,1.6v-0.4
					c0.9,0.1,1.7,0.4,2.3,0.8c0.6,0.4,1.1,1,1.5,1.6c0.3,0.7,0.5,1.4,0.5,2.3c0,1.1-0.3,2.1-0.8,2.9c-0.5,0.8-1.3,1.4-2.3,1.8
					c-1,0.4-2.2,0.6-3.5,0.6H251.2z M254.6,48.5h4.5c1.2,0,2.1-0.2,2.7-0.7c0.6-0.5,0.9-1.2,0.9-2.1c0-0.9-0.3-1.6-0.9-2.1
					c-0.6-0.5-1.5-0.7-2.7-0.7h-4.5V48.5z M254.6,57h4.9c0.5,0,0.9,0,1.3-0.1c0.4-0.1,0.7-0.2,1-0.3c0.3-0.2,0.5-0.4,0.7-0.6
					c0.2-0.2,0.3-0.5,0.4-0.8c0.1-0.3,0.1-0.7,0.1-1c0-0.4,0-0.8-0.1-1.1c-0.1-0.3-0.2-0.6-0.4-0.8c-0.2-0.2-0.4-0.4-0.7-0.6
					c-0.3-0.2-0.6-0.3-1-0.3c-0.4-0.1-0.8-0.1-1.3-0.1h-4.9V57z"/>
				<path d="M267.7,59.6l8.7-19.3h2.9l8.7,19.3h-3.6l-2.3-5.4l1.5,1h-11.6l1.5-1l-2.3,5.4H267.7z M277.9,44.1l-3.8,9.1l-0.7-0.9h9.2
					l-0.7,0.9L277.9,44.1L277.9,44.1z"/>
				<path d="M288.9,59.6l3.2-5.9c0.4-0.8,0.9-1.4,1.5-1.7c0.6-0.4,1.2-0.5,2-0.5h0.9l-0.1,0.4c-1.4,0-2.6-0.2-3.6-0.7
					c-1-0.5-1.8-1.1-2.3-2c-0.5-0.9-0.8-1.9-0.8-3.1c0-1.8,0.6-3.2,1.7-4.3c1.2-1,2.8-1.5,4.9-1.5h8.4v19.3h-3.5v-7.7H299
					c-0.4,0-0.8,0-1.2,0.1c-0.3,0.1-0.7,0.3-0.9,0.5c-0.3,0.2-0.5,0.5-0.7,0.9l-3.4,6.2H288.9z M297,49.3h4.3v-6.2H297
					c-1.3,0-2.2,0.3-2.9,0.8c-0.6,0.5-1,1.3-1,2.3c0,1,0.3,1.8,1,2.3C294.8,49.1,295.8,49.3,297,49.3z"/>
			</g>
			<path d="M112.7,91.7V72.4h3.5v8.2h3.1l-0.7,0.5l5.5-8.7h3.9l-6.1,9.3l-1.4-1c0.8,0.1,1.5,0.3,2.1,0.7c0.6,0.3,1.2,0.8,1.7,1.4
				c0.5,0.6,0.9,1.3,1.3,2.1l3.3,6.9h-3.8l-2.6-5.6c-0.4-0.9-1-1.6-1.6-2c-0.6-0.4-1.4-0.6-2.3-0.6h-2.5v8.2H112.7z"/>
			<path d="M139.5,91.9c-1.4,0-2.7-0.2-3.8-0.7c-1.1-0.5-2.1-1.1-2.9-2c-0.8-0.9-1.4-1.9-1.9-3.2c-0.4-1.2-0.7-2.6-0.7-4.1
				c0-1.5,0.2-2.9,0.7-4.1c0.4-1.2,1.1-2.3,1.9-3.1c0.8-0.9,1.8-1.5,2.9-2c1.1-0.5,2.4-0.7,3.8-0.7c1.4,0,2.7,0.2,3.8,0.7
				c1.1,0.5,2.1,1.1,2.9,2c0.8,0.9,1.4,1.9,1.9,3.1c0.4,1.2,0.7,2.6,0.7,4.1c0,1.5-0.2,2.9-0.7,4.1c-0.4,1.2-1.1,2.3-1.9,3.2
				c-0.8,0.9-1.8,1.5-2.9,2C142.1,91.7,140.9,91.9,139.5,91.9z M139.5,88.9c1.2,0,2.2-0.3,3-0.8c0.8-0.5,1.5-1.3,1.9-2.4
				c0.4-1,0.7-2.3,0.7-3.7c0-1.5-0.2-2.7-0.7-3.7c-0.4-1-1.1-1.8-1.9-2.4c-0.8-0.5-1.9-0.8-3-0.8c-1.2,0-2.2,0.3-3,0.8
				c-0.8,0.5-1.5,1.3-1.9,2.4c-0.4,1-0.7,2.3-0.7,3.7c0,1.4,0.2,2.7,0.7,3.7c0.4,1,1.1,1.8,1.9,2.4
				C137.3,88.7,138.3,88.9,139.5,88.9z"/>
			<path d="M152.4,91.7V72.4h2.9l7.3,13.5h-0.9l7.3-13.5h2.9v19.3h-3.2V77.6h0.6l-6.1,11.2h-2.1l-6.2-11.2h0.7v14.1H152.4z"/>
			<path d="M176.1,91.7V72.4h16.8v19.3h-3.5V75.3h-9.8v16.4H176.1z"/>
			<path d="M195,91.7l8.7-19.3h2.9l8.7,19.3h-3.6l-2.3-5.4l1.5,1h-11.6l1.5-1l-2.3,5.4H195z M205.2,76.2l-3.8,9.1l-0.7-0.9h9.2
				l-0.7,0.9L205.2,76.2L205.2,76.2z"/>
			<path d="M217.5,91.7V72.4h3.5v8.1h9.9v-8.1h3.5v19.3h-3.5v-8.3H221v8.3H217.5z"/>
			<path d="M238.7,91.7V72.4h3.3v14.4h-0.6l11-14.4h2.6v19.3h-3.3V77.2h0.6l-11,14.4H238.7z"/>
			<path d="M257.9,91.7l3.2-5.9c0.4-0.8,0.9-1.4,1.5-1.7c0.6-0.4,1.2-0.5,2-0.5h0.9l-0.1,0.4c-1.4,0-2.6-0.2-3.6-0.7
				c-1-0.5-1.8-1.1-2.3-2c-0.5-0.9-0.8-1.9-0.8-3.1c0-1.8,0.6-3.2,1.7-4.3c1.2-1,2.8-1.5,4.9-1.5h8.4v19.3h-3.5v-7.7h-2.4
				c-0.4,0-0.8,0-1.2,0.1c-0.3,0.1-0.7,0.3-0.9,0.5c-0.3,0.2-0.5,0.5-0.7,0.9l-3.4,6.2H257.9z M266,81.3h4.3v-6.2H266
				c-1.3,0-2.2,0.3-2.9,0.8c-0.6,0.5-1,1.3-1,2.3c0,1,0.3,1.8,1,2.3C263.8,81.1,264.7,81.3,266,81.3z"/>
		</g>
		<g>
			<path class="st0" d="M29.7,50.3L58,13.4l0.1,0.1l14,10.7l3.4-4.5L49.7,0l-3.6,4.7L18,41.4l7.3,5.6h0L29.7,50.3z M26,40.2
				L50.8,7.9L50.9,8l2.6,2l-0.1,0.1L28.7,42.4l-0.1-0.1l-2.6-2L26,40.2z"/>
			<path class="st0" d="M100,49.8L58.6,18.1l-5.5,7.2l0,0l-3.4,4.4l37,28.3l-0.1,0.1l-10.8,14l4.5,3.4L100,49.8z M57.5,28.7l0.1-0.1
				l2-2.6l0.1,0.1l32.4,24.8L92,51l-2,2.6l-0.1-0.1L57.5,28.7z"/>
			<path class="st0" d="M42,86.5l-14-10.8l-3.4,4.5L50.3,100L82,58.6l-11.7-8.9L42.1,86.6L42,86.5z M46.7,89.8l24.7-32.3l0.1,0.1
				l2.6,2L74,59.8L49.3,92.1L49.2,92l-2.6-2L46.7,89.8z"/>
			<path class="st0" d="M41.5,81.8l8.8-11.6l-37-28.3l0.1-0.1l10.8-14.1l-4.5-3.4L0,50.1l0.2,0.2l0,0l41.1,31.5l0.2,0.1v0L41.5,81.8
				L41.5,81.8z M40.4,74.1L40.3,74L7.9,49.1L8,49l2-2.6l0.1,0.1l32.4,24.8l-0.1,0.1L40.4,74.1z"/>
		</g>
	</g>
</g>
<g id="Layer_2">
</g>
</svg>
