<?xml version="1.0" encoding="utf-8"?>
<!-- Generator: Adobe Illustrator 25.2.0, SVG Export Plug-In . SVG Version: 6.00 Build 0)  -->
<svg version="1.1" xmlns="http://www.w3.org/2000/svg" xmlns:xlink="http://www.w3.org/1999/xlink" x="0px" y="0px"
	 viewBox="0 0 250.6 100" style="enable-background:new 0 0 250.6 100;" xml:space="preserve">
<style type="text/css">
	.st0{fill:#CA9E67;}
	.st1{fill:#FFFFFF;}
</style>
<g id="Layer_1">
	<g>
		<g>
			<path d="M121.8,27.9c-1,0-2-0.1-2.9-0.3c-0.9-0.2-1.8-0.4-2.5-0.8c-0.8-0.3-1.5-0.7-2.1-1.2l1.1-2.8c0.6,0.4,1.2,0.8,1.9,1.1
				c0.7,0.3,1.4,0.5,2.1,0.7c0.8,0.2,1.6,0.2,2.4,0.2c1.4,0,2.5-0.2,3.2-0.7c0.7-0.5,1-1.1,1-1.9c0-0.4-0.1-0.8-0.3-1.1
				c-0.2-0.3-0.5-0.6-1-0.8c-0.5-0.2-1.1-0.4-1.8-0.5l-3-0.6c-1.7-0.4-3-1-3.9-1.8c-0.8-0.9-1.3-2-1.3-3.4c0-1.2,0.3-2.3,1-3.2
				c0.6-0.9,1.5-1.6,2.7-2.1c1.1-0.5,2.4-0.7,3.9-0.7c0.9,0,1.7,0.1,2.5,0.3c0.8,0.2,1.6,0.4,2.2,0.8c0.7,0.3,1.3,0.7,1.8,1.2
				l-1.1,2.6c-0.8-0.6-1.6-1.1-2.5-1.4c-0.9-0.3-1.9-0.5-3-0.5c-0.8,0-1.6,0.1-2.2,0.4c-0.6,0.2-1.1,0.6-1.4,1
				c-0.3,0.4-0.5,0.9-0.5,1.5c0,0.7,0.2,1.2,0.7,1.6c0.4,0.4,1.2,0.7,2.2,0.9l3,0.6c1.8,0.4,3.2,1,4,1.8c0.9,0.8,1.3,1.9,1.3,3.3
				c0,1.2-0.3,2.2-0.9,3c-0.6,0.9-1.5,1.6-2.6,2C124.7,27.6,123.4,27.9,121.8,27.9z"/>
			<path d="M136.7,27.6V11.2H130V8.3h16.8v2.9h-6.6v16.4H136.7z"/>
			<path d="M144.8,27.6l8.7-19.3h2.9l8.7,19.3h-3.6l-2.3-5.4l1.5,1h-11.6l1.5-1l-2.3,5.4H144.8z M155,12.1l-3.8,9.1l-0.7-0.9h9.2
				l-0.7,0.9L155,12.1L155,12.1z"/>
			<path d="M169.8,27.6V11.2h-6.6V8.3h16.8v2.9h-6.6v16.4H169.8z"/>
			<path d="M182.2,27.6V8.3H195v2.8h-9.5v5.3h8.9v2.8h-8.9v5.6h9.5v2.8H182.2z"/>
			<path d="M114.4,59.6V40.3h3.5v16.3h9.3v3H114.4z"/>
			<path d="M129.8,59.6V40.3h12.8v2.8h-9.5v5.3h8.9v2.8h-8.9v5.6h9.5v2.8H129.8z"/>
			<path d="M143.7,59.6l8.7-19.3h2.9l8.7,19.3h-3.6l-2.3-5.4l1.5,1h-11.6l1.5-1l-2.3,5.4H143.7z M153.8,44.1l-3.8,9.1l-0.7-0.9h9.2
				l-0.7,0.9L153.8,44.1L153.8,44.1z"/>
			<path d="M172.6,59.9c-1,0-2-0.1-2.9-0.3c-0.9-0.2-1.8-0.4-2.5-0.8c-0.8-0.3-1.5-0.7-2.1-1.2l1.1-2.8c0.6,0.4,1.2,0.8,1.9,1.1
				c0.7,0.3,1.4,0.5,2.1,0.7c0.8,0.2,1.6,0.2,2.4,0.2c1.4,0,2.5-0.2,3.2-0.7c0.7-0.5,1-1.1,1-1.9c0-0.4-0.1-0.8-0.3-1.1
				c-0.2-0.3-0.5-0.6-1-0.8c-0.5-0.2-1.1-0.4-1.8-0.5l-3-0.6c-1.7-0.4-3-1-3.9-1.8c-0.8-0.9-1.3-2-1.3-3.4c0-1.2,0.3-2.3,1-3.2
				c0.6-0.9,1.5-1.6,2.7-2.1c1.1-0.5,2.4-0.7,3.9-0.7c0.9,0,1.7,0.1,2.5,0.3c0.8,0.2,1.6,0.4,2.2,0.8c0.7,0.3,1.3,0.7,1.8,1.2
				l-1.1,2.6c-0.8-0.6-1.6-1.1-2.5-1.4c-0.9-0.3-1.9-0.5-3-0.5c-0.8,0-1.6,0.1-2.2,0.4c-0.6,0.2-1.1,0.6-1.4,1
				c-0.3,0.4-0.5,0.9-0.5,1.5c0,0.7,0.2,1.2,0.7,1.6c0.4,0.4,1.2,0.7,2.2,0.9l3,0.6c1.8,0.4,3.2,1,4,1.8c0.9,0.8,1.3,1.9,1.3,3.3
				c0,1.2-0.3,2.2-0.9,3c-0.6,0.9-1.5,1.6-2.6,2C175.5,59.7,174.1,59.9,172.6,59.9z"/>
			<path d="M183.2,59.6V40.3h3.5v19.3H183.2z"/>
			<path d="M190.9,59.6V40.3h2.6l11.1,14.4h-0.7V40.3h3.3v19.3h-2.6l-11.1-14.4h0.7v14.4H190.9z"/>
			<path d="M220.7,59.9c-2.1,0-3.9-0.4-5.4-1.2c-1.5-0.8-2.6-1.9-3.4-3.4c-0.8-1.5-1.2-3.2-1.2-5.3c0-2,0.4-3.8,1.2-5.3
				c0.8-1.5,1.9-2.6,3.4-3.5c1.5-0.8,3.3-1.2,5.3-1.2c0.9,0,1.8,0.1,2.6,0.3c0.8,0.2,1.6,0.4,2.3,0.8c0.7,0.3,1.3,0.7,1.8,1.2
				l-1.2,2.7c-0.9-0.7-1.7-1.2-2.6-1.5c-0.9-0.3-1.9-0.4-3-0.4c-2,0-3.6,0.6-4.6,1.8c-1.1,1.2-1.6,2.9-1.6,5.1c0,2.2,0.5,4,1.6,5.1
				c1.1,1.2,2.7,1.8,4.8,1.8c0.7,0,1.5-0.1,2.2-0.2c0.7-0.1,1.5-0.3,2.2-0.6l-0.7,1.6v-5.8h-4.4v-2.6h7.4v9.3
				c-0.6,0.3-1.3,0.5-2,0.8c-0.8,0.2-1.5,0.4-2.4,0.5C222.3,59.9,221.5,59.9,220.7,59.9z"/>
			<path d="M124.1,91.9c-2,0-3.7-0.4-5.2-1.2c-1.4-0.8-2.5-2-3.3-3.5c-0.8-1.5-1.2-3.2-1.2-5.3c0-2,0.4-3.8,1.2-5.3
				c0.8-1.5,1.9-2.6,3.3-3.4c1.4-0.8,3.2-1.2,5.2-1.2c1.3,0,2.5,0.2,3.7,0.6c1.2,0.4,2.1,1,2.9,1.7l-1.2,2.8
				c-0.8-0.7-1.7-1.2-2.5-1.5c-0.9-0.3-1.8-0.5-2.8-0.5c-2,0-3.4,0.6-4.5,1.8c-1,1.2-1.5,2.9-1.5,5c0,2.2,0.5,3.9,1.5,5
				c1,1.2,2.5,1.8,4.5,1.8c1,0,1.9-0.2,2.8-0.5c0.9-0.3,1.7-0.8,2.5-1.5l1.2,2.8c-0.7,0.7-1.7,1.3-2.9,1.7
				C126.7,91.7,125.4,91.9,124.1,91.9z"/>
			<path d="M141.8,91.9c-1.4,0-2.7-0.2-3.8-0.7c-1.1-0.5-2.1-1.1-2.9-2c-0.8-0.9-1.4-1.9-1.9-3.2c-0.4-1.2-0.7-2.6-0.7-4.1
				c0-1.5,0.2-2.9,0.7-4.1c0.4-1.2,1.1-2.3,1.9-3.1c0.8-0.9,1.8-1.5,2.9-2c1.1-0.5,2.4-0.7,3.8-0.7c1.4,0,2.7,0.2,3.8,0.7
				c1.1,0.5,2.1,1.1,2.9,2c0.8,0.9,1.4,1.9,1.9,3.1c0.4,1.2,0.7,2.6,0.7,4.1c0,1.5-0.2,2.9-0.7,4.1c-0.4,1.2-1.1,2.3-1.9,3.2
				c-0.8,0.9-1.8,1.5-2.9,2C144.5,91.7,143.2,91.9,141.8,91.9z M141.8,88.9c1.2,0,2.2-0.3,3-0.8c0.8-0.5,1.5-1.3,1.9-2.4
				c0.4-1,0.7-2.3,0.7-3.7c0-1.5-0.2-2.7-0.7-3.7c-0.4-1-1.1-1.8-1.9-2.4c-0.8-0.5-1.9-0.8-3-0.8c-1.2,0-2.2,0.3-3,0.8
				c-0.8,0.5-1.5,1.3-1.9,2.4c-0.4,1-0.7,2.3-0.7,3.7c0,1.4,0.2,2.7,0.7,3.7c0.4,1,1.1,1.8,1.9,2.4
				C139.6,88.7,140.6,88.9,141.8,88.9z"/>
			<path d="M154.7,91.7V72.4h2.9l7.3,13.5H164l7.3-13.5h2.9v19.3H171V77.6h0.6l-6.1,11.2h-2.1l-6.2-11.2h0.7v14.1H154.7z"/>
			<path d="M178.4,91.7V72.4h8.4c1.4,0,2.6,0.2,3.6,0.7c1,0.5,1.7,1.2,2.2,2.1c0.5,0.9,0.8,2,0.8,3.3c0,1.3-0.3,2.3-0.8,3.2
				c-0.5,0.9-1.3,1.6-2.2,2.1c-1,0.5-2.2,0.7-3.6,0.7h-4.9v7.2H178.4z M181.9,81.7h4.3c1.2,0,2.2-0.3,2.8-0.8c0.6-0.6,1-1.4,1-2.5
				c0-1.1-0.3-1.9-1-2.4c-0.6-0.5-1.6-0.8-2.8-0.8h-4.3V81.7z"/>
			<path d="M192.2,91.7l8.7-19.3h2.9l8.7,19.3H209l-2.3-5.4l1.5,1h-11.6l1.5-1l-2.3,5.4H192.2z M202.3,76.2l-3.8,9.1l-0.7-0.9h9.2
				l-0.7,0.9L202.3,76.2L202.3,76.2z"/>
			<path d="M214.6,91.7V72.4h2.6l11.1,14.4h-0.7V72.4h3.3v19.3h-2.6l-11.1-14.4h0.7v14.4H214.6z"/>
			<path d="M239.7,91.7v-9.9l0.7,2.1l-8.2-11.5h4.1l5.5,7.9h-0.8l5.6-7.9h3.9l-8.1,11.5l0.7-2.1v9.9H239.7z"/>
		</g>
		<g>
			<path class="st0" d="M29.7,50.3L58,13.4l0.1,0.1l14,10.7l3.4-4.5L49.7,0l-3.6,4.7L18,41.4l7.3,5.6h0L29.7,50.3z M26,40.2
				L50.8,7.9L50.9,8l2.6,2l-0.1,0.1L28.7,42.4l-0.1-0.1l-2.6-2L26,40.2z"/>
			<path class="st0" d="M100,49.8L58.6,18.1l-5.5,7.2l0,0l-3.4,4.4l37,28.3l-0.1,0.1l-10.8,14l4.5,3.4L100,49.8z M57.5,28.7l0.1-0.1
				l2-2.6l0.1,0.1l32.4,24.8L92,51l-2,2.6l-0.1-0.1L57.5,28.7z"/>
			<path class="st0" d="M42,86.5l-14-10.8l-3.4,4.5L50.3,100L82,58.6l-11.7-8.9L42.1,86.6L42,86.5z M46.7,89.8l24.7-32.3l0.1,0.1
				l2.6,2L74,59.8L49.3,92.1L49.2,92l-2.6-2L46.7,89.8z"/>
			<path class="st0" d="M41.5,81.8l8.8-11.6l-37-28.3l0.1-0.1l10.8-14.1l-4.5-3.4L0,50.1l0.2,0.2l0,0l41.1,31.5l0.2,0.1v0L41.5,81.8
				L41.5,81.8z M40.4,74.1L40.3,74L7.9,49.1L8,49l2-2.6l0.1,0.1l32.4,24.8l-0.1,0.1L40.4,74.1z"/>
		</g>
	</g>
</g>
<g id="Layer_2">
</g>
</svg>
