<svg width="32" height="37" viewBox="0 0 32 37" fill="none" xmlns="http://www.w3.org/2000/svg">
<path fill-rule="evenodd" clip-rule="evenodd" d="M0.641113 30.7716L19.3042 12.2394L20.6631 13.4672L21.7436 9.6855L31.2716 0.141113L31.4517 6.77144L27.8173 10.3076L23.5608 11.8138L24.9359 13.1071L0.722969 37.5001L0.641113 30.7716ZM5.68585 15.4258L5.86827 21.7495C5.87333 21.925 5.87586 22.0127 5.92984 22.0341C5.98383 22.0554 6.04564 21.9931 6.16928 21.8684L17.4129 10.53C17.4711 10.4713 17.5003 10.4419 17.5002 10.4056C17.5001 10.3692 17.4709 10.34 17.4124 10.2815L16.3676 9.2367C16.2754 9.14447 16.2292 9.09835 16.2412 9.0501C16.2531 9.00185 16.3154 8.98257 16.44 8.94401L16.44 8.944L20.1627 7.79174C20.2225 7.77324 20.2524 7.76399 20.2696 7.74069C20.2867 7.7174 20.2867 7.68611 20.2867 7.62355V1.26777C20.2867 1.08761 20.2867 0.99753 20.2325 0.97497C20.1783 0.952409 20.1144 1.01589 19.9866 1.14285L5.73777 15.2958C5.7111 15.3223 5.69777 15.3356 5.691 15.3525C5.68423 15.3695 5.68477 15.3882 5.68585 15.4258ZM14.6573 26.7876L14.8395 32.9213C14.8447 33.0943 14.8472 33.1809 14.9007 33.2023C14.9543 33.2238 15.0159 33.163 15.1391 33.0414L29.1068 19.2656C29.133 19.2397 29.1461 19.2268 29.1529 19.2103C29.1597 19.1938 29.1596 19.1754 29.1592 19.1386L29.1072 13.573V13.5729C29.1025 13.0658 29.1001 12.8122 29.0232 12.8031C28.9463 12.7939 28.8844 13.0398 28.7604 13.5316L28.7604 13.5316L28.1584 15.9203L28.1584 15.9203L28.1584 15.9204L28.1584 15.9204C28.1235 16.0586 28.1061 16.1277 28.0555 16.1407C28.0049 16.1537 27.9562 16.1016 27.8589 15.9974L26.8281 14.8929C26.7699 14.8305 26.7407 14.7993 26.7035 14.7986C26.6663 14.7979 26.636 14.8279 26.5754 14.888L14.7093 26.6573C14.6826 26.6839 14.6692 26.6971 14.6624 26.7141C14.6556 26.7311 14.6562 26.7499 14.6573 26.7876Z" fill="#007CC3"/>
</svg>
