<?xml version="1.0" encoding="utf-8"?>
<!-- Generator: Adobe Illustrator 25.2.0, SVG Export Plug-In . SVG Version: 6.00 Build 0)  -->
<svg version="1.1" xmlns="http://www.w3.org/2000/svg" xmlns:xlink="http://www.w3.org/1999/xlink" x="0px" y="0px"
	 viewBox="0 0 323.4 100" style="enable-background:new 0 0 323.4 100;" xml:space="preserve">
<style type="text/css">
	.st0{fill:#CA9E67;}
	.st1{fill:#FFFFFF;}
</style>
<g id="Layer_1">
	<g>
		<path d="M112.7,25.9V6.6h2.9l7.3,13.5h-0.9l7.3-13.5h2.9v19.3H129V11.8h0.6L123.5,23h-2.1l-6.2-11.2h0.7v14.1H112.7z"/>
		<path d="M134.4,25.9l8.7-19.3h2.9l8.7,19.3h-3.6l-2.3-5.4l1.5,1h-11.6l1.5-1l-2.3,5.4H134.4z M144.5,10.4l-3.8,9.1l-0.7-0.9h9.2
			l-0.7,0.9L144.5,10.4L144.5,10.4z"/>
		<path d="M156.9,25.9V6.6h2.9l7.3,13.5h-0.9l7.3-13.5h2.9v19.3h-3.2V11.8h0.6L167.7,23h-2.1l-6.2-11.2h0.7v14.1H156.9z"/>
		<path d="M180.6,26.4l-1.7-2.6c0.7-0.4,1.4-0.9,1.9-1.5c0.6-0.6,1-1.3,1.4-2.1c0.4-0.8,0.7-1.9,0.8-3.2c0.2-1.3,0.3-2.8,0.3-4.6
			V6.6H197v19.3h-3.5V9.5h-6.9v3.8c0,1.9-0.1,3.5-0.4,4.9c-0.3,1.4-0.7,2.6-1.2,3.7c-0.5,1-1.1,1.9-1.9,2.6
			C182.4,25.3,181.6,25.9,180.6,26.4z"/>
		<path d="M201.2,25.9V6.6h12.8v2.8h-9.5v5.3h8.9v2.8h-8.9v5.6h9.5v2.8H201.2z"/>
		<path d="M217.6,25.9V6.6h3.5v8.2h3.1l-0.7,0.5l5.5-8.7h3.9l-6.1,9.3l-1.4-1c0.8,0.1,1.5,0.3,2.1,0.7c0.6,0.3,1.2,0.8,1.7,1.4
			c0.5,0.6,0.9,1.3,1.3,2.1l3.3,6.9H230l-2.6-5.6c-0.4-0.9-1-1.6-1.6-2c-0.6-0.4-1.4-0.6-2.3-0.6h-2.5v8.2H217.6z"/>
		<path d="M236.1,25.9V6.6h12.8v2.8h-9.5v5.3h8.9v2.8h-8.9v5.6h9.5v2.8H236.1z"/>
		<path d="M256.9,25.9V9.5h-6.6V6.6h16.8v2.9h-6.6v16.4H256.9z"/>
		<path d="M274.3,25.9V9.5h-6.6V6.6h16.8v2.9h-6.6v16.4H274.3z"/>
		<path d="M286.7,25.9V6.6h3.3V21h-0.6l11-14.4h2.6v19.3h-3.3V11.5h0.6l-11,14.4H286.7z"/>
		<path d="M307.1,25.9V6.6h3.5v8.2h3.1l-0.7,0.5l5.5-8.7h3.9l-6.1,9.3l-1.4-1c0.8,0.1,1.5,0.3,2.1,0.7c0.6,0.3,1.2,0.8,1.7,1.4
			c0.5,0.6,0.9,1.3,1.3,2.1l3.3,6.9h-3.8l-2.6-5.6c-0.4-0.9-1-1.6-1.6-2c-0.6-0.4-1.4-0.6-2.3-0.6h-2.5v8.2H307.1z"/>
		<g>
			<path d="M114.6,58.4l-1.7-2.6c0.7-0.4,1.4-0.9,1.9-1.5c0.6-0.6,1-1.3,1.4-2.1c0.4-0.8,0.7-1.9,0.8-3.2c0.2-1.3,0.3-2.8,0.3-4.6
				v-5.9h13.6V58h-3.5V41.6h-6.9v3.8c0,1.9-0.1,3.5-0.4,4.9c-0.3,1.4-0.7,2.6-1.2,3.7c-0.5,1-1.1,1.9-1.9,2.6
				C116.4,57.3,115.5,57.9,114.6,58.4z"/>
			<path d="M135.2,58V38.6h3.3v14.4h-0.6l11-14.4h2.6V58h-3.3V43.5h0.6l-11,14.4H135.2z"/>
			<path d="M161.9,58.2c-1.1,0-2.1-0.1-3-0.3c-0.9-0.2-1.7-0.5-2.5-0.8c-0.7-0.4-1.4-0.8-2-1.2l1.1-2.7c0.8,0.7,1.7,1.2,2.7,1.5
				c1,0.3,2.1,0.5,3.4,0.5c1.5,0,2.6-0.2,3.4-0.7c0.7-0.5,1.1-1.2,1.1-2.2c0-0.9-0.3-1.6-0.9-2c-0.6-0.4-1.5-0.7-2.7-0.7h-4.7v-2.8
				h4.2c1.2,0,2.1-0.2,2.7-0.7c0.6-0.4,0.9-1.1,0.9-2c0-0.9-0.3-1.5-0.9-2c-0.6-0.5-1.6-0.8-3-0.8c-1.1,0-2.1,0.2-3.1,0.5
				c-1,0.3-1.9,0.8-2.7,1.5l-1.1-2.6c0.6-0.5,1.3-0.9,2-1.2c0.8-0.3,1.6-0.6,2.5-0.8c0.9-0.2,1.8-0.3,2.8-0.3c1.6,0,2.9,0.2,3.9,0.7
				c1,0.4,1.8,1.1,2.3,1.9c0.5,0.8,0.8,1.7,0.8,2.8c0,1.2-0.3,2.2-1,3c-0.7,0.8-1.6,1.3-2.8,1.6v-0.4c1.3,0.2,2.4,0.7,3.1,1.5
				c0.7,0.8,1.1,1.9,1.1,3.2c0,1.1-0.3,2.1-0.8,3c-0.5,0.9-1.4,1.5-2.5,2C165,58,163.6,58.2,161.9,58.2z"/>
			<path d="M173,58V38.6h3.3v14.4h-0.6l11-14.4h2.6V58H186V43.5h0.6l-11,14.4H173z"/>
			<path d="M193.5,58V38.6h3.5v8.1h9.9v-8.1h3.5V58H207v-8.3H197V58H193.5z"/>
			<path d="M214.7,58V38.6h12.8v2.9h-9.3V58H214.7z"/>
		</g>
		<path d="M112.7,90V70.7h3.5v8.2h3.1l-0.7,0.5l5.5-8.7h3.9l-6.1,9.3l-1.4-1c0.8,0.1,1.5,0.3,2.1,0.7c0.6,0.3,1.2,0.8,1.7,1.4
			c0.5,0.6,0.9,1.3,1.3,2.1l3.3,6.9h-3.8l-2.6-5.6c-0.4-0.9-1-1.6-1.6-2c-0.6-0.4-1.4-0.6-2.3-0.6h-2.5V90H112.7z"/>
		<path d="M139.5,90.3c-1.4,0-2.7-0.2-3.8-0.7c-1.1-0.5-2.1-1.1-2.9-2c-0.8-0.9-1.4-1.9-1.9-3.2c-0.4-1.2-0.7-2.6-0.7-4.1
			c0-1.5,0.2-2.9,0.7-4.1c0.4-1.2,1.1-2.3,1.9-3.1c0.8-0.9,1.8-1.5,2.9-2c1.1-0.5,2.4-0.7,3.8-0.7c1.4,0,2.7,0.2,3.8,0.7
			c1.1,0.5,2.1,1.1,2.9,2c0.8,0.9,1.4,1.9,1.9,3.1c0.4,1.2,0.7,2.6,0.7,4.1c0,1.5-0.2,2.9-0.7,4.1c-0.4,1.2-1.1,2.3-1.9,3.2
			c-0.8,0.9-1.8,1.5-2.9,2C142.1,90,140.9,90.3,139.5,90.3z M139.5,87.2c1.2,0,2.2-0.3,3-0.8c0.8-0.5,1.5-1.3,1.9-2.4
			c0.4-1,0.7-2.3,0.7-3.7c0-1.5-0.2-2.7-0.7-3.7c-0.4-1-1.1-1.8-1.9-2.4c-0.8-0.5-1.9-0.8-3-0.8c-1.2,0-2.2,0.3-3,0.8
			c-0.8,0.5-1.5,1.3-1.9,2.4c-0.4,1-0.7,2.3-0.7,3.7c0,1.4,0.2,2.7,0.7,3.7c0.4,1,1.1,1.8,1.9,2.4C137.3,87,138.3,87.2,139.5,87.2z"
			/>
		<path d="M152.4,90V70.7h2.9l7.3,13.5h-0.9l7.3-13.5h2.9V90h-3.2V75.9h0.6l-6.1,11.2h-2.1l-6.2-11.2h0.7V90H152.4z"/>
		<path d="M176.1,90V70.7h16.8V90h-3.5V73.6h-9.8V90H176.1z"/>
		<path d="M195,90l8.7-19.3h2.9l8.7,19.3h-3.6l-2.3-5.4l1.5,1h-11.6l1.5-1l-2.3,5.4H195z M205.2,74.5l-3.8,9.1l-0.7-0.9h9.2
			l-0.7,0.9L205.2,74.5L205.2,74.5z"/>
		<path d="M217.5,90V70.7h3.5v8.1h9.9v-8.1h3.5V90h-3.5v-8.3H221V90H217.5z"/>
		<path d="M238.7,90V70.7h3.3v14.4h-0.6l11-14.4h2.6V90h-3.3V75.6h0.6l-11,14.4H238.7z"/>
		<path d="M257.9,90l3.2-5.9c0.4-0.8,0.9-1.4,1.5-1.7c0.6-0.4,1.2-0.5,2-0.5h0.9l-0.1,0.4c-1.4,0-2.6-0.2-3.6-0.7
			c-1-0.5-1.8-1.1-2.3-2c-0.5-0.9-0.8-1.9-0.8-3.1c0-1.8,0.6-3.2,1.7-4.3c1.2-1,2.8-1.5,4.9-1.5h8.4V90h-3.5v-7.7h-2.4
			c-0.4,0-0.8,0-1.2,0.1c-0.3,0.1-0.7,0.3-0.9,0.5c-0.3,0.2-0.5,0.5-0.7,0.9l-3.4,6.2H257.9z M266,79.7h4.3v-6.2H266
			c-1.3,0-2.2,0.3-2.9,0.8c-0.6,0.5-1,1.3-1,2.3c0,1,0.3,1.8,1,2.3C263.8,79.4,264.7,79.7,266,79.7z"/>
		<path d="M287,90.3c-2,0-3.7-0.4-5.2-1.2c-1.4-0.8-2.5-2-3.3-3.5c-0.8-1.5-1.2-3.2-1.2-5.3c0-2,0.4-3.8,1.2-5.3
			c0.8-1.5,1.9-2.6,3.3-3.4c1.4-0.8,3.2-1.2,5.2-1.2c1.3,0,2.5,0.2,3.7,0.6c1.2,0.4,2.1,1,2.9,1.7l-1.2,2.8
			c-0.8-0.7-1.7-1.2-2.5-1.5c-0.9-0.3-1.8-0.5-2.8-0.5c-2,0-3.4,0.6-4.5,1.8c-1,1.2-1.5,2.9-1.5,5c0,2.2,0.5,3.9,1.5,5
			c1,1.2,2.5,1.8,4.5,1.8c1,0,1.9-0.2,2.8-0.5c0.9-0.3,1.7-0.8,2.5-1.5l1.2,2.8c-0.7,0.7-1.7,1.3-2.9,1.7
			C289.5,90.1,288.3,90.3,287,90.3z"/>
		<path d="M296.6,90V70.7h3.5v8.1h4.4c1.4,0,2.5,0.2,3.5,0.6c1,0.4,1.7,1.1,2.3,1.9c0.5,0.8,0.8,1.9,0.8,3.1c0,1.2-0.3,2.3-0.8,3.1
			c-0.5,0.8-1.3,1.5-2.3,1.9c-1,0.4-2.2,0.6-3.5,0.6H296.6z M300.1,87.2h4c1.2,0,2.2-0.2,2.7-0.7c0.6-0.5,0.9-1.2,0.9-2.2
			c0-1-0.3-1.7-0.9-2.1c-0.6-0.5-1.5-0.7-2.7-0.7h-4V87.2z M313.6,90V70.7h3.5V90H313.6z"/>
		<g>
			<path class="st0" d="M29.7,50.3L58,13.4l0.1,0.1l14,10.7l3.4-4.5L49.7,0l-3.6,4.7L18,41.4l7.3,5.6h0L29.7,50.3z M26,40.2
				L50.8,7.9L50.9,8l2.6,2l-0.1,0.1L28.7,42.4l-0.1-0.1l-2.6-2L26,40.2z"/>
			<path class="st0" d="M100,49.8L58.6,18.1l-5.5,7.2l0,0l-3.4,4.4l37,28.3l-0.1,0.1l-10.8,14l4.5,3.4L100,49.8z M57.5,28.7l0.1-0.1
				l2-2.6l0.1,0.1l32.4,24.8L92,51l-2,2.6l-0.1-0.1L57.5,28.7z"/>
			<path class="st0" d="M42,86.5l-14-10.8l-3.4,4.5L50.3,100L82,58.6l-11.7-8.9L42.1,86.6L42,86.5z M46.7,89.8l24.7-32.3l0.1,0.1
				l2.6,2L74,59.8L49.3,92.1L49.2,92l-2.6-2L46.7,89.8z"/>
			<path class="st0" d="M41.5,81.8l8.8-11.6l-37-28.3l0.1-0.1l10.8-14.1l-4.5-3.4L0,50.1l0.2,0.2l0,0l41.1,31.5l0.2,0.1v0L41.5,81.8
				L41.5,81.8z M40.4,74.1L40.3,74L7.9,49.1L8,49l2-2.6l0.1,0.1l32.4,24.8l-0.1,0.1L40.4,74.1z"/>
		</g>
	</g>
</g>
<g id="Layer_2">
</g>
</svg>
