<svg width="30" height="31" viewBox="0 0 30 31" fill="none" xmlns="http://www.w3.org/2000/svg">
<path fill-rule="evenodd" clip-rule="evenodd" d="M4.5 8C4.5 7.17157 5.17157 6.5 6 6.5H24C24.8284 6.5 25.5 7.17157 25.5 8C25.5 8.82843 24.8284 9.5 24 9.5H6C5.17157 9.5 4.5 8.82843 4.5 8Z" fill="#0A0A0A"/>
<path fill-rule="evenodd" clip-rule="evenodd" d="M4.5 15.5C4.5 14.6716 5.17157 14 6 14H24C24.8284 14 25.5 14.6716 25.5 15.5C25.5 16.3284 24.8284 17 24 17H6C5.17157 17 4.5 16.3284 4.5 15.5Z" fill="#0A0A0A"/>
<path fill-rule="evenodd" clip-rule="evenodd" d="M4.5 23C4.5 22.1716 5.17157 21.5 6 21.5H24C24.8284 21.5 25.5 22.1716 25.5 23C25.5 23.8284 24.8284 24.5 24 24.5H6C5.17157 24.5 4.5 23.8284 4.5 23Z" fill="#0A0A0A"/>
</svg>
